<svg width="48" height="48" viewBox="0 0 48 48" fill="none" xmlns="http://www.w3.org/2000/svg">
<path d="M30 44V14C30 12.8954 29.1046 12 28 12H19C17.8954 12 17 12.8954 17 14V44H30Z" fill="#ABBCF7"/>
<path d="M16 44V24C16 22.8954 15.1046 22 14 22H5C3.89543 22 3 22.8954 3 24V44H16Z" fill="#CBD9FA"/>
<path d="M44 44V4C44 2.89543 43.1046 2 42 2H33C31.8954 2 31 2.89543 31 4V44H44Z" fill="#4750EF"/>
<path fill-rule="evenodd" clip-rule="evenodd" d="M41.4676 20.8421L41.5469 14.3071L35.012 14.2278L34.9877 16.2277L38.0141 16.2644L31.7909 23.7323H25.2786L19.2786 31.2323H13.2993L7 38.5815L8.51851 39.8831L14.2192 33.2323H20.2399L26.2399 25.7323H32.7276L39.5068 17.5973L39.4678 20.8178L41.4676 20.8421Z" fill="white"/>
</svg>
