<svg width="48" height="48" viewBox="0 0 48 48" fill="none" xmlns="http://www.w3.org/2000/svg">
<circle cx="21.6714" cy="11.2378" r="8.23779" fill="#CBD9FA"/>
<path fill-rule="evenodd" clip-rule="evenodd" d="M33.3299 33.1181V41.709H9V33.1181V32.1636H9.03545C9.51325 25.7562 14.7613 20.709 21.165 20.709C27.5686 20.709 32.8167 25.7562 33.2945 32.1636H33.3299V33.1181Z" fill="#CBD9FA"/>
<path d="M42 44V31.8485C42 31.2962 41.5523 30.8485 41 30.8485H29.5338C29.2145 30.8485 28.9143 30.696 28.7261 30.438L26.2949 27.1068C25.8955 26.5595 25.0789 26.5595 24.6794 27.1068L22.2483 30.438C22.06 30.696 21.7599 30.8485 21.4405 30.8485H20C19.4477 30.8485 19 31.2962 19 31.8485V44C19 44.5523 19.4477 45 20 45H41C41.5523 45 42 44.5523 42 44Z" fill="#4750EF"/>
<path d="M22 34H28M22 38H31M35 38H39M22 42H24H26M30 42H39M32 34H37" stroke="white" stroke-width="2" stroke-linecap="round"/>
</svg>
