<svg width="48" height="48" viewBox="0 0 48 48" fill="none" xmlns="http://www.w3.org/2000/svg">
<circle cx="14.7941" cy="12.5294" r="6.52941" fill="#ABBCF7"/>
<circle cx="34.3824" cy="12.5294" r="6.52941" fill="#CBD9FA"/>
<path fill-rule="evenodd" clip-rule="evenodd" d="M24.2843 29.6788V36.3541H14.6911C14.6748 36.3542 14.6585 36.3542 14.6422 36.3542C14.6258 36.3542 14.6095 36.3542 14.5932 36.3541H5V29.6788V28.9371H5.02811C5.40686 23.9585 9.56652 20.0367 14.6422 20.0367C19.7178 20.0367 23.8775 23.9585 24.2562 28.9371H24.2843V29.6788Z" fill="#ABBCF7"/>
<path fill-rule="evenodd" clip-rule="evenodd" d="M43.6234 29.7204C43.6235 29.7065 43.6235 29.6927 43.6235 29.6788C43.6235 29.665 43.6235 29.6511 43.6234 29.6373V28.9371H43.5954C43.2167 23.9585 39.057 20.0367 33.9814 20.0367C28.9057 20.0367 24.7461 23.9585 24.3673 28.9371H24.3391V36.3541H33.9324C33.9487 36.3542 33.965 36.3542 33.9814 36.3542C33.9977 36.3542 34.014 36.3542 34.0303 36.3541H43.6234V29.7204Z" fill="#CBD9FA"/>
<circle cx="24.7128" cy="18.0588" r="6.52941" fill="#4750EF"/>
<path fill-rule="evenodd" clip-rule="evenodd" d="M34.0785 35.3624C34.0785 35.3498 34.0786 35.3373 34.0786 35.3246C34.0786 35.312 34.0785 35.2995 34.0785 35.2869V34.5829H34.0505C33.6717 29.6043 29.5121 25.6825 24.4364 25.6825C19.3608 25.6825 15.2011 29.6043 14.8224 34.5829H14.7942V42H24.4209C24.4261 42 24.4313 42 24.4364 42C24.4416 42 24.4467 42 24.4519 42H34.0785V35.3624Z" fill="#4750EF"/>
</svg>
