<svg width="48" height="48" viewBox="0 0 48 48" fill="none" xmlns="http://www.w3.org/2000/svg">
<g clip-path="url(#clip0)">
<path d="M30.3657 40.9024V5.15C30.3657 3.96259 29.4031 3 28.2157 3H20.784C19.5966 3 18.634 3.96259 18.634 5.15V40.9024H30.3657Z" fill="#CBD9FA"/>
<path d="M17.7317 40.9021V19.5888C17.7317 18.4014 16.7691 17.4388 15.5817 17.4388H8.15001C6.96259 17.4388 6.00001 18.4014 6.00001 19.5888V40.9021H17.7317Z" fill="#CBD9FA"/>
<path d="M42.9998 40.9021V13.2717C42.9998 12.0843 42.0372 11.1217 40.8498 11.1217H33.4181C32.2307 11.1217 31.2681 12.0843 31.2681 13.2717V40.9021H42.9998Z" fill="#CBD9FA"/>
<g clip-path="url(#clip1)">
<path d="M37.5843 33.27C37.575 33.4591 37.5002 33.6455 37.3623 33.7928C37.1084 34.0632 25.8593 46.056 25.5525 46.383C25.3898 46.5567 25.1706 46.643 24.9512 46.643C24.7319 46.643 24.5126 46.5567 24.3499 46.383C24.096 46.1126 12.8469 34.1198 12.5402 33.7928C12.4022 33.6455 12.3275 33.4591 12.3181 33.27C12.3088 33.0804 12.3643 32.8875 12.4869 32.7276C15.4281 28.885 14.3431 30.3014 17.2837 26.4605C17.3617 26.3588 17.4612 26.278 17.5733 26.2225C17.6854 26.167 17.8096 26.1373 17.9383 26.1373H31.9642C32.0928 26.1373 32.217 26.167 32.3291 26.2225C32.4412 26.278 32.5407 26.3588 32.6188 26.4605C35.5594 30.3014 34.4743 28.885 37.4155 32.7276C37.5382 32.8875 37.5937 33.0804 37.5843 33.27Z" fill="#4750EF"/>
<path d="M37.5843 33.2696C37.5749 33.4587 37.5002 33.645 37.3622 33.7923C37.1083 34.0628 25.8592 46.0555 25.5525 46.3826C25.3898 46.5562 25.1705 46.6426 24.9512 46.6426V26.1368H31.9641C32.0927 26.1368 32.2169 26.1664 32.3291 26.222C32.4412 26.2775 32.5407 26.3583 32.6187 26.4599C35.5593 30.3009 34.4743 28.8845 37.4155 32.727C37.5381 32.887 37.5936 33.08 37.5843 33.2696Z" fill="#4750EF"/>
<path d="M37.5843 33.2702C37.575 33.4593 37.5002 33.6456 37.3623 33.7929C37.1083 34.0634 25.8592 46.0561 25.5525 46.3832C25.3898 46.5569 25.1705 46.6432 24.9512 46.6432C24.7319 46.6432 24.5126 46.5569 24.3499 46.3832C24.0959 46.1127 12.8469 34.1199 12.5402 33.7929C12.4022 33.6456 12.3274 33.4593 12.3181 33.2702H37.5843Z" fill="#4750EF"/>
<path d="M37.5843 33.2702C37.5749 33.4593 37.5002 33.6456 37.3622 33.7929C37.1083 34.0634 25.8592 46.0561 25.5525 46.3832C25.3898 46.5569 25.1705 46.6432 24.9512 46.6432V33.2703H37.5843V33.2702Z" fill="#4750EF"/>
<path d="M32.3291 26.222C32.217 26.5314 29.8942 32.9606 29.7826 33.2695H20.1198C20.0076 32.9601 17.6848 26.5309 17.5732 26.222C17.6865 26.1659 17.8112 26.1368 17.9382 26.1368H31.9641C32.0911 26.1367 32.2153 26.1659 32.3291 26.222Z" fill="#4750EF"/>
<path d="M32.3289 26.2224C32.2167 26.5318 29.8939 32.9611 29.7823 33.2699H24.9509V26.1371H31.9639C32.0908 26.1371 32.2151 26.1663 32.3289 26.2224Z" fill="#4750EF"/>
<path d="M29.7825 33.27L24.951 46.6429L20.1196 33.27H29.7825Z" fill="#ABBCF7"/>
<path d="M24.9513 26.1368L20.1199 33.2696H29.7827L24.9513 26.1368Z" fill="#ABBCF7"/>
</g>
<path d="M24.9514 22.4023V16.5365" stroke="#4750EF" stroke-width="2.15" stroke-linecap="round"/>
<path d="M13.0374 27.184L10.5124 24.6586" stroke="#4750EF" stroke-width="2.15" stroke-linecap="round"/>
<path d="M36.6828 27.184L39.2082 24.659" stroke="#4750EF" stroke-width="2.15" stroke-linecap="round"/>
</g>
<defs>
<clipPath id="clip0">
<rect width="48" height="48" fill="white"/>
</clipPath>
<clipPath id="clip1">
<rect width="25.2682" height="25.2682" fill="white" transform="translate(12.3171 23.7559)"/>
</clipPath>
</defs>
</svg>
