<svg width="48" height="48" viewBox="0 0 48 48" fill="none" xmlns="http://www.w3.org/2000/svg">
<path d="M3 8.17139H44V40C44 41.1045 43.1046 42 42 42H5C3.89543 42 3 41.1045 3 40V8.17139Z" fill="#CBD9FA"/>
<path d="M35.7949 22.7385C35.7949 22.3464 35.4692 22.0289 35.0672 22.0289H33.144C32.9899 21.5627 32.7978 21.1091 32.5684 20.6737L33.9284 19.3484C34.2122 19.0711 34.2122 18.6221 33.9284 18.3449L30.841 15.3342C30.5567 15.0575 30.0963 15.0575 29.8119 15.3342L28.4528 16.6597C28.0055 16.4369 27.5407 16.2495 27.063 16.0991V14.2237C27.063 13.8317 26.7374 13.5142 26.3354 13.5142H21.9695C21.5674 13.5142 21.2418 13.8317 21.2418 14.2237V16.0991C20.7641 16.2495 20.2993 16.4369 19.852 16.6597L18.4929 15.3342C18.2086 15.0575 17.7482 15.0575 17.4639 15.3342L14.3764 18.3449C14.0927 18.6221 14.0927 19.0711 14.3764 19.3484L15.7357 20.6737C15.6749 20.7898 15.6164 20.9064 15.5611 21.0242C15.4075 21.3513 15.274 21.6866 15.1608 22.0289H13.2377C12.8356 22.0289 12.51 22.3464 12.51 22.7385V26.9959C12.51 27.3879 12.8356 27.7054 13.2377 27.7054H15.1608C15.3149 28.1716 15.507 28.6252 15.7364 29.0607L14.3764 30.386C14.0927 30.6632 14.0927 31.1122 14.3764 31.3895L17.4639 34.4001C17.7482 34.6769 18.2086 34.6769 18.4929 34.4001L19.852 33.0747C20.2993 33.2975 20.7641 33.4848 21.2418 33.6352V35.5106C21.2418 35.9026 21.5674 36.2202 21.9695 36.2202H26.3354C26.7374 36.2202 27.063 35.9026 27.063 35.5106V33.6352C27.5407 33.4848 28.0055 33.2975 28.4528 33.0747L29.8119 34.4001C30.0963 34.6769 30.5567 34.6769 30.841 34.4001L33.9284 31.3895C34.2122 31.1122 34.2122 30.6632 33.9284 30.386L32.5684 29.0607C32.7978 28.6252 32.9899 28.1716 33.144 27.7054H35.0672C35.4692 27.7054 35.7949 27.3879 35.7949 26.9959V22.7385Z" fill="#4750EF"/>
<path d="M24.1524 19.8999C21.3391 19.8999 19.0588 22.1235 19.0588 24.8668C19.0588 27.6102 21.3391 29.8338 24.1524 29.8338C26.9657 29.8338 29.246 27.6102 29.246 24.8668C29.2427 22.1251 26.964 19.9031 24.1524 19.8999Z" fill="#CBD9FA"/>
<path d="M42 4L5 4C3.89543 4 3 4.89543 3 6L3 10L44 10L44 6C44 4.89543 43.1046 4 42 4Z" fill="#ABBCF7"/>
</svg>
