<svg width="36" height="36" viewBox="0 0 36 36" fill="none" xmlns="http://www.w3.org/2000/svg">
<path d="M9.0164 19.8C6.02984 19.8 3.59998 22.2299 3.59998 25.2164V32.5252C3.59998 33.4502 4.34983 34.2 5.27475 34.2C6.19966 34.2 6.94951 33.4502 6.94951 32.5252V29.3504H11.0832V32.5252C11.0832 33.4502 11.833 34.2 12.7579 34.2C13.6829 34.2 14.4327 33.4502 14.4327 32.5252V25.2164C14.4328 22.2299 12.003 19.8 9.0164 19.8ZM11.0833 26.001H6.94963V25.2165H6.94951C6.94951 24.0768 7.87678 23.1497 9.0164 23.1497C10.156 23.1497 11.0833 24.0768 11.0833 25.2165V26.001Z" fill="white"/>
<path d="M22.8069 19.8H18.424C17.4991 19.8 16.7493 20.5499 16.7493 21.4748V32.5252C16.7493 33.4502 17.4991 34.2 18.424 34.2C19.349 34.2 20.0988 33.4502 20.0988 32.5252V29.3504H22.8069C25.44 29.3504 27.5822 27.2082 27.5822 24.5751C27.5822 21.9421 25.44 19.8 22.8069 19.8ZM22.8069 26.001H20.0988V23.1497H22.8069C23.593 23.1497 24.2327 23.7893 24.2327 24.5754C24.2327 25.3617 23.593 26.001 22.8069 26.001Z" fill="white"/>
<path d="M31.5735 19.8C30.6485 19.8 29.8987 20.5499 29.8987 21.4748V32.5252C29.8987 33.4502 30.6485 34.2 31.5735 34.2C32.4984 34.2 33.2482 33.4502 33.2482 32.5252V21.4748C33.2482 20.5499 32.4984 19.8 31.5735 19.8Z" fill="white"/>
<path d="M7.98012 7.44603V7.44603C8.30804 7.86564 8.91268 7.94083 9.33302 7.61429C15.2472 2.98523 23.5468 2.98523 29.461 7.61429C29.8825 7.92964 30.4782 7.84925 30.8015 7.4334C31.1247 7.01755 31.0567 6.419 30.6484 6.08666C24.0362 0.911907 14.7578 0.911908 8.14561 6.08667C7.72534 6.41626 7.65125 7.02485 7.98012 7.44603Z" fill="white" stroke="white" stroke-width="2.1"/>
<path d="M12.7892 13.5554C16.4999 10.0435 22.3006 10.0435 26.0113 13.5554C26.3998 13.9213 27.0105 13.9029 27.3763 13.5142V13.5142C27.5519 13.3271 27.6461 13.0777 27.6382 12.8209C27.6302 12.5642 27.5208 12.3211 27.334 12.1452V12.1452C22.879 7.93295 15.919 7.93295 11.4641 12.1452C11.0721 12.5085 11.0483 13.1215 11.4109 13.5142C11.7735 13.907 12.3852 13.9308 12.7771 13.5675L12.7892 13.5554Z" fill="white" stroke="white" stroke-width="2.1"/>
</svg>
