<svg width="866" height="678" xmlns="http://www.w3.org/2000/svg"><defs><filter x="-1.5%" y="-1.9%" width="103%" height="103.9%" filterUnits="objectBoundingBox" id="a"><feOffset dy="2" in="SourceAlpha" result="shadowOffsetOuter1"/><feGaussianBlur stdDeviation="2" in="shadowOffsetOuter1" result="shadowBlurOuter1"/><feColorMatrix values="0 0 0 0 0 0 0 0 0 0 0 0 0 0 0 0 0 0 0.5 0" in="shadowBlurOuter1" result="shadowMatrixOuter1"/><feMerge><feMergeNode in="shadowMatrixOuter1"/><feMergeNode in="SourceGraphic"/></feMerge></filter></defs><g filter="url(#a)" transform="translate(-1 3)" stroke="#FFF" stroke-width=".69" fill="none" fill-rule="evenodd" opacity=".225"><path d="M0 0h861.903v668H0zM0 589.322h861.903M0 511.152h861.903M0 432.982h861.903M0 353.796h861.903M0 275.626h861.903M0 197.456h861.903M0 119.286h861.903M0 41.116h861.903M783.225 0v668M705.055 0v668M626.884 0v668M548.714 0v668M469.529 0v668M391.359 0v668M313.188 0v668M235.018 0v668M155.833 0v668M77.663 0v668"/></g></svg>