<svg width="36" height="36" viewBox="0 0 36 36" fill="none" xmlns="http://www.w3.org/2000/svg">
<g clip-path="url(#clip0)">
<path d="M18.001 32.4C20.4222 32.4016 22.8011 31.7386 24.8988 30.4775L23.3613 27.6989C20.0403 29.6945 15.9512 29.6918 12.6326 27.6917C9.31411 25.6917 7.26973 21.9977 7.26881 17.9999C7.26881 17.7099 7.28034 17.4192 7.3034 17.1279L9.22535 19.1326L11.3991 16.8673L6.7864 12.0559C6.18603 11.4301 5.21305 11.4301 4.61267 12.0559L0 16.8673L2.17372 19.1346L4.22828 16.9896C4.20522 17.3243 4.19177 17.6611 4.19177 17.9919C4.19601 25.9459 10.3755 32.3934 18.001 32.4Z" fill="white" stroke="white" stroke-width="0.2"/>
<path d="M30.3013 24.4151C30.7086 24.4149 31.0991 24.2462 31.3872 23.946L35.9999 19.1346L33.8262 16.8673L31.7697 19.0103C31.7928 18.6755 31.8062 18.3387 31.8062 18.008C31.8075 12.8581 29.1729 8.09926 24.896 5.52641C20.6191 2.95356 15.3508 2.95816 11.078 5.53847L11.9159 7.20853L12.6156 8.31303C15.9358 6.3092 20.0289 6.30581 23.3522 8.30414C26.6755 10.3025 28.7239 13.9987 28.7253 17.9999C28.7253 18.2926 28.7138 18.5833 28.6927 18.872L26.7707 16.8673L24.6008 19.1346L29.2135 23.946C29.5021 24.2467 29.8934 24.4154 30.3013 24.4151Z" fill="white" stroke="white" stroke-width="0.2"/>
</g>
<defs>
<clipPath id="clip0">
<rect width="36" height="36" fill="white"/>
</clipPath>
</defs>
</svg>
