<svg width="36" height="36" viewBox="0 0 36 36" fill="none" xmlns="http://www.w3.org/2000/svg">
<g clip-path="url(#clip0)">
<path d="M34.2 18.0024C34.2 17.9426 34.2 17.8828 34.2 17.823C33.4823 8.50425 26.7907 5.16979 26.7907 5.16979C22.2068 2.52669 16.5612 2.52879 11.9792 5.17531C7.39727 7.82184 4.57445 12.711 4.57341 18.0024C4.57341 18.3509 4.58784 18.6973 4.61259 19.0335L2.40612 16.8373L0.0738525 19.1696L5.02295 24.1187C5.66711 24.7624 6.71106 24.7624 7.35522 24.1187L12.3043 19.1696L9.97205 16.8373L7.90993 18.8994C7.88724 18.6025 7.87487 18.3035 7.87487 18.0024C7.87629 13.8908 10.0695 10.0919 13.6294 8.03466C17.1893 5.97746 21.5759 5.9741 25.139 8.02584C30.9274 10.7602 30.8964 18.32 30.8964 18.32C30.7849 22.3785 28.5444 26.0783 24.9995 28.0576C21.4546 30.0369 17.1293 30.0031 13.6158 27.9686L11.9661 30.8206C16.5489 33.4708 22.1974 33.4746 26.7838 30.8306C31.3701 28.1865 34.1972 23.2963 34.2 18.0024Z" fill="white" stroke="white" stroke-width="0.2"/>
<path fill-rule="evenodd" clip-rule="evenodd" d="M17.3958 17.9464V11.8897C17.3958 11.1464 17.9578 10.5438 18.6512 10.5438C19.3446 10.5438 19.9067 11.1464 19.9067 11.8897V17.4554L23.627 21.4438C24.1173 21.9694 24.1173 22.8216 23.627 23.3472C23.1367 23.8728 22.3418 23.8728 21.8515 23.3472L17.8566 19.0645C17.7595 18.9604 17.6817 18.8435 17.623 18.7189C17.4798 18.5003 17.3958 18.2339 17.3958 17.9464Z" fill="white"/>
</g>
<defs>
<clipPath id="clip0">
<rect width="36" height="36" fill="white"/>
</clipPath>
</defs>
</svg>
